# xmcd CD database file
# Copyright (C) 1993-1998 Ti Kan
#
# Track frame offsets:
#  150
#  15915
#  27410
#  40620
#  51630
#  66397
#  80037
#  92057
#  103430
#  115882
#  128930
#  145855
#  159590
#  172140
#  186060
#  200342
#  212905
#  224387
#  236352
#  248692
#
# Disc length: 3489 seconds
#
# Revision: 1
# Processed by: cddbd v1.4b41PL1 Copyright (c) Steve Scherf et al.
# Submitted via: CDWizzard Release:4.35
#
DISCID=280d9f14
DTITLE=Mercury Blues - Various - Mercury Blues  'N' Rhythm Stars
DYEAR=1900
DGENRE=
TTITLE0=It's Just The Blues - Four Jumps Of Jive
TTITLE1=Bar Fly Blues - Jimmy Witherspoon
TTITLE2=If It's Good -Julia Lee
TTITLE3=Gonna Send You Where You From - Eddie "Cleanhead" Vinson
TTITLE4=Record Ban Blues - Dinah Washington
TTITLE5=Been Fooling Around - Roy Byrd and His Blues Jumpers
TTITLE6=Streetwalkin' Daddy - Alma "The Lolipop Mama" Mondy
TTITLE7=Papa Said Yes, Mama Said No, No, No - Lee Graves
TTITLE8=West Coast Lover - Robert "Snake" Sims
TTITLE9=(All Alone) I Sit And Cry - Violet Hall
TTITLE10=Let Me Fly Your Kite - Lightnin' Hopkins
TTITLE11=Get Back (Black, Brown and White) - Big Bill Broonzy
TTITLE12=No Mail Blues - Memphis Slim
TTITLE13=Baby Baby Blues - Johnny Otis
TTITLE14=Hittin' On Me - Buddy and Ella Johnson
TTITLE15=Boogie The Blues - Ray Johnson
TTITLE16=Talk About Me - Jay Hawkins
TTITLE17=All Around The World - Titus Turner
TTITLE18=Rhythm Rockin' Blues - Rollee McGill
TTITLE19=Woke Up This Morning - Arthur Prysock
EXTD=
EXTT0=
EXTT1=
EXTT2=
EXTT3=
EXTT4=
EXTT5=
EXTT6=
EXTT7=
EXTT8=
EXTT9=
EXTT10=
EXTT11=
EXTT12=
EXTT13=
EXTT14=
EXTT15=
EXTT16=
EXTT17=
EXTT18=
EXTT19=
PLAYORDER=
